<mxfile host="app.diagrams.net" modified="2023-02-24T13:59:46.480Z" agent="5.0 (Windows NT 10.0; Win64; x64) AppleWebKit/537.36 (KHTML, like Gecko) Chrome/97.0.4692.71 Safari/537.36" etag="Sjq61Rxp9MA-tXo6WI2f" version="20.8.20" type="github">
  <diagram name="第 1 页" id="2eby7_EUMZsgkIJewPi7">
    <mxGraphModel dx="2261" dy="764" grid="1" gridSize="10" guides="1" tooltips="1" connect="1" arrows="1" fold="1" page="1" pageScale="1" pageWidth="827" pageHeight="1169" math="0" shadow="0">
      <root>
        <mxCell id="0" />
        <mxCell id="1" parent="0" />
        <mxCell id="wgSQVZFUaa1Q4gMYhKkH-2" value="" style="rounded=0;whiteSpace=wrap;html=1;fontSize=18;fillColor=#cdeb8b;strokeColor=#36393d;" vertex="1" parent="1">
          <mxGeometry x="-50" y="260" width="990" height="90" as="geometry" />
        </mxCell>
        <mxCell id="wgSQVZFUaa1Q4gMYhKkH-4" value="&lt;font style=&quot;font-size: 24px;&quot;&gt;@Around&lt;/font&gt;" style="rounded=1;whiteSpace=wrap;html=1;fontSize=18;" vertex="1" parent="1">
          <mxGeometry x="80" y="280" width="120" height="50" as="geometry" />
        </mxCell>
        <mxCell id="wgSQVZFUaa1Q4gMYhKkH-5" value="AspectJ&lt;br&gt;API" style="text;html=1;strokeColor=none;fillColor=none;align=center;verticalAlign=middle;whiteSpace=wrap;rounded=0;fontSize=24;" vertex="1" parent="1">
          <mxGeometry x="-40" y="280" width="100" height="50" as="geometry" />
        </mxCell>
        <mxCell id="wgSQVZFUaa1Q4gMYhKkH-6" value="&lt;font style=&quot;font-size: 24px;&quot;&gt;@Before&lt;/font&gt;" style="rounded=1;whiteSpace=wrap;html=1;fontSize=18;" vertex="1" parent="1">
          <mxGeometry x="220" y="280" width="120" height="50" as="geometry" />
        </mxCell>
        <mxCell id="wgSQVZFUaa1Q4gMYhKkH-7" value="&lt;font style=&quot;font-size: 24px;&quot;&gt;@After&lt;/font&gt;" style="rounded=1;whiteSpace=wrap;html=1;fontSize=18;" vertex="1" parent="1">
          <mxGeometry x="370" y="280" width="120" height="50" as="geometry" />
        </mxCell>
        <mxCell id="wgSQVZFUaa1Q4gMYhKkH-8" value="&lt;font style=&quot;font-size: 24px;&quot;&gt;@AfterReturning&lt;/font&gt;" style="rounded=1;whiteSpace=wrap;html=1;fontSize=18;" vertex="1" parent="1">
          <mxGeometry x="510" y="280" width="190" height="50" as="geometry" />
        </mxCell>
        <mxCell id="wgSQVZFUaa1Q4gMYhKkH-9" value="&lt;font style=&quot;font-size: 24px;&quot;&gt;@AfterThrowing&lt;/font&gt;" style="rounded=1;whiteSpace=wrap;html=1;fontSize=18;" vertex="1" parent="1">
          <mxGeometry x="730" y="280" width="190" height="50" as="geometry" />
        </mxCell>
        <mxCell id="wgSQVZFUaa1Q4gMYhKkH-10" value="" style="rounded=0;whiteSpace=wrap;html=1;fontSize=18;fillColor=#cce5ff;strokeColor=#36393d;" vertex="1" parent="1">
          <mxGeometry x="-50" y="350" width="990" height="160" as="geometry" />
        </mxCell>
        <mxCell id="wgSQVZFUaa1Q4gMYhKkH-11" value="Spring API" style="text;html=1;strokeColor=none;fillColor=none;align=center;verticalAlign=middle;whiteSpace=wrap;rounded=0;fontSize=24;" vertex="1" parent="1">
          <mxGeometry x="-40" y="420" width="100" height="50" as="geometry" />
        </mxCell>
        <mxCell id="wgSQVZFUaa1Q4gMYhKkH-12" value="&lt;font style=&quot;font-size: 24px;&quot;&gt;AspectJAroundAdvice&lt;/font&gt;" style="rounded=1;whiteSpace=wrap;html=1;fontSize=18;" vertex="1" parent="1">
          <mxGeometry x="70" y="370" width="260" height="50" as="geometry" />
        </mxCell>
        <mxCell id="wgSQVZFUaa1Q4gMYhKkH-14" value="&lt;font style=&quot;font-size: 24px;&quot;&gt;AspectJMethodBeforeAdvice&lt;/font&gt;" style="rounded=1;whiteSpace=wrap;html=1;fontSize=18;" vertex="1" parent="1">
          <mxGeometry x="350" y="370" width="320" height="50" as="geometry" />
        </mxCell>
        <mxCell id="wgSQVZFUaa1Q4gMYhKkH-15" value="&lt;font style=&quot;font-size: 24px;&quot;&gt;AspectJAfterAdvice&lt;/font&gt;" style="rounded=1;whiteSpace=wrap;html=1;fontSize=18;" vertex="1" parent="1">
          <mxGeometry x="690" y="370" width="230" height="50" as="geometry" />
        </mxCell>
        <mxCell id="wgSQVZFUaa1Q4gMYhKkH-16" value="&lt;font style=&quot;font-size: 24px;&quot;&gt;AspectJAfterReturningAdvice&lt;/font&gt;" style="rounded=1;whiteSpace=wrap;html=1;fontSize=18;" vertex="1" parent="1">
          <mxGeometry x="140" y="440" width="320" height="50" as="geometry" />
        </mxCell>
        <mxCell id="wgSQVZFUaa1Q4gMYhKkH-17" value="&lt;font style=&quot;font-size: 24px;&quot;&gt;AspectJAfterThrowingAdvice&lt;/font&gt;" style="rounded=1;whiteSpace=wrap;html=1;fontSize=18;" vertex="1" parent="1">
          <mxGeometry x="520" y="440" width="320" height="50" as="geometry" />
        </mxCell>
        <mxCell id="wgSQVZFUaa1Q4gMYhKkH-24" style="edgeStyle=orthogonalEdgeStyle;rounded=0;orthogonalLoop=1;jettySize=auto;html=1;fontSize=24;" edge="1" parent="1" source="wgSQVZFUaa1Q4gMYhKkH-21" target="wgSQVZFUaa1Q4gMYhKkH-22">
          <mxGeometry relative="1" as="geometry" />
        </mxCell>
        <mxCell id="wgSQVZFUaa1Q4gMYhKkH-21" value="findCandidateAdvisors" style="strokeWidth=2;html=1;shape=mxgraph.flowchart.start_1;whiteSpace=wrap;fontSize=24;" vertex="1" parent="1">
          <mxGeometry x="307.5" y="650" width="275" height="60" as="geometry" />
        </mxCell>
        <mxCell id="wgSQVZFUaa1Q4gMYhKkH-25" style="edgeStyle=orthogonalEdgeStyle;rounded=0;orthogonalLoop=1;jettySize=auto;html=1;fontSize=24;" edge="1" parent="1" source="wgSQVZFUaa1Q4gMYhKkH-22" target="wgSQVZFUaa1Q4gMYhKkH-23">
          <mxGeometry relative="1" as="geometry" />
        </mxCell>
        <mxCell id="wgSQVZFUaa1Q4gMYhKkH-22" value="在 BeanFactory 中寻找 Advisor 实例" style="rounded=1;whiteSpace=wrap;html=1;absoluteArcSize=1;arcSize=14;strokeWidth=2;fontSize=24;" vertex="1" parent="1">
          <mxGeometry x="325" y="740" width="240" height="60" as="geometry" />
        </mxCell>
        <mxCell id="wgSQVZFUaa1Q4gMYhKkH-27" style="edgeStyle=orthogonalEdgeStyle;rounded=0;orthogonalLoop=1;jettySize=auto;html=1;fontSize=24;" edge="1" parent="1" source="wgSQVZFUaa1Q4gMYhKkH-23" target="wgSQVZFUaa1Q4gMYhKkH-26">
          <mxGeometry relative="1" as="geometry" />
        </mxCell>
        <mxCell id="wgSQVZFUaa1Q4gMYhKkH-23" value="在 BeanFactory 中寻找 AspectJ 切面类" style="rounded=1;whiteSpace=wrap;html=1;absoluteArcSize=1;arcSize=14;strokeWidth=2;fontSize=24;" vertex="1" parent="1">
          <mxGeometry x="322.5" y="840" width="245" height="70" as="geometry" />
        </mxCell>
        <mxCell id="wgSQVZFUaa1Q4gMYhKkH-31" style="edgeStyle=orthogonalEdgeStyle;rounded=0;orthogonalLoop=1;jettySize=auto;html=1;fontSize=24;" edge="1" parent="1" source="wgSQVZFUaa1Q4gMYhKkH-26" target="wgSQVZFUaa1Q4gMYhKkH-30">
          <mxGeometry relative="1" as="geometry" />
        </mxCell>
        <mxCell id="wgSQVZFUaa1Q4gMYhKkH-26" value="将 AspectJ 切面类中的切面方法封装为 Advisor" style="rounded=1;whiteSpace=wrap;html=1;absoluteArcSize=1;arcSize=14;strokeWidth=2;fontSize=24;" vertex="1" parent="1">
          <mxGeometry x="301.25" y="940" width="287.5" height="70" as="geometry" />
        </mxCell>
        <mxCell id="wgSQVZFUaa1Q4gMYhKkH-33" style="edgeStyle=orthogonalEdgeStyle;rounded=0;orthogonalLoop=1;jettySize=auto;html=1;fontSize=24;" edge="1" parent="1" source="wgSQVZFUaa1Q4gMYhKkH-30" target="wgSQVZFUaa1Q4gMYhKkH-32">
          <mxGeometry relative="1" as="geometry" />
        </mxCell>
        <mxCell id="wgSQVZFUaa1Q4gMYhKkH-30" value="缓存这些 Advisor" style="rounded=1;whiteSpace=wrap;html=1;absoluteArcSize=1;arcSize=14;strokeWidth=2;fontSize=24;" vertex="1" parent="1">
          <mxGeometry x="327.5" y="1050" width="235" height="50" as="geometry" />
        </mxCell>
        <mxCell id="wgSQVZFUaa1Q4gMYhKkH-32" value="return Advisor 列表" style="strokeWidth=2;html=1;shape=mxgraph.flowchart.terminator;whiteSpace=wrap;fontSize=24;" vertex="1" parent="1">
          <mxGeometry x="327.5" y="1130" width="235" height="60" as="geometry" />
        </mxCell>
        <mxCell id="wgSQVZFUaa1Q4gMYhKkH-36" style="edgeStyle=orthogonalEdgeStyle;rounded=0;orthogonalLoop=1;jettySize=auto;html=1;fontSize=24;" edge="1" parent="1" source="wgSQVZFUaa1Q4gMYhKkH-34" target="wgSQVZFUaa1Q4gMYhKkH-35">
          <mxGeometry relative="1" as="geometry" />
        </mxCell>
        <mxCell id="wgSQVZFUaa1Q4gMYhKkH-34" value="创建代理对象" style="strokeWidth=2;html=1;shape=mxgraph.flowchart.start_1;whiteSpace=wrap;fontSize=24;" vertex="1" parent="1">
          <mxGeometry x="390" y="1450" width="175" height="60" as="geometry" />
        </mxCell>
        <mxCell id="wgSQVZFUaa1Q4gMYhKkH-39" style="edgeStyle=orthogonalEdgeStyle;rounded=0;orthogonalLoop=1;jettySize=auto;html=1;entryX=0.5;entryY=0;entryDx=0;entryDy=0;fontSize=24;" edge="1" parent="1" source="wgSQVZFUaa1Q4gMYhKkH-35" target="wgSQVZFUaa1Q4gMYhKkH-37">
          <mxGeometry relative="1" as="geometry" />
        </mxCell>
        <mxCell id="wgSQVZFUaa1Q4gMYhKkH-40" style="edgeStyle=orthogonalEdgeStyle;rounded=0;orthogonalLoop=1;jettySize=auto;html=1;fontSize=24;" edge="1" parent="1" source="wgSQVZFUaa1Q4gMYhKkH-35" target="wgSQVZFUaa1Q4gMYhKkH-38">
          <mxGeometry relative="1" as="geometry" />
        </mxCell>
        <mxCell id="wgSQVZFUaa1Q4gMYhKkH-35" value="寻找适用于目标对象的 Advisor" style="rounded=1;whiteSpace=wrap;html=1;absoluteArcSize=1;arcSize=14;strokeWidth=2;fontSize=24;" vertex="1" parent="1">
          <mxGeometry x="306.25" y="1550" width="342.5" height="60" as="geometry" />
        </mxCell>
        <mxCell id="wgSQVZFUaa1Q4gMYhKkH-48" style="edgeStyle=orthogonalEdgeStyle;rounded=0;orthogonalLoop=1;jettySize=auto;html=1;entryX=0.5;entryY=0;entryDx=0;entryDy=0;fontSize=24;" edge="1" parent="1" source="wgSQVZFUaa1Q4gMYhKkH-37" target="wgSQVZFUaa1Q4gMYhKkH-46">
          <mxGeometry relative="1" as="geometry" />
        </mxCell>
        <mxCell id="wgSQVZFUaa1Q4gMYhKkH-37" value="JdkDynamicAopProxy" style="rounded=1;whiteSpace=wrap;html=1;absoluteArcSize=1;arcSize=14;strokeWidth=2;fontSize=24;" vertex="1" parent="1">
          <mxGeometry x="180" y="1720" width="242.5" height="50" as="geometry" />
        </mxCell>
        <mxCell id="wgSQVZFUaa1Q4gMYhKkH-49" style="edgeStyle=orthogonalEdgeStyle;rounded=0;orthogonalLoop=1;jettySize=auto;html=1;entryX=0.5;entryY=0;entryDx=0;entryDy=0;fontSize=24;" edge="1" parent="1" source="wgSQVZFUaa1Q4gMYhKkH-38" target="wgSQVZFUaa1Q4gMYhKkH-46">
          <mxGeometry relative="1" as="geometry" />
        </mxCell>
        <mxCell id="wgSQVZFUaa1Q4gMYhKkH-38" value="ObjenesisCglibAopProxy" style="rounded=1;whiteSpace=wrap;html=1;absoluteArcSize=1;arcSize=14;strokeWidth=2;fontSize=24;" vertex="1" parent="1">
          <mxGeometry x="510" y="1720" width="277.5" height="50" as="geometry" />
        </mxCell>
        <mxCell id="wgSQVZFUaa1Q4gMYhKkH-51" style="edgeStyle=orthogonalEdgeStyle;rounded=0;orthogonalLoop=1;jettySize=auto;html=1;fontSize=24;" edge="1" parent="1" source="wgSQVZFUaa1Q4gMYhKkH-46" target="wgSQVZFUaa1Q4gMYhKkH-50">
          <mxGeometry relative="1" as="geometry" />
        </mxCell>
        <mxCell id="wgSQVZFUaa1Q4gMYhKkH-46" value="getProxy" style="rounded=1;whiteSpace=wrap;html=1;absoluteArcSize=1;arcSize=14;strokeWidth=2;fontSize=24;" vertex="1" parent="1">
          <mxGeometry x="418.75" y="1830" width="117.5" height="60" as="geometry" />
        </mxCell>
        <mxCell id="wgSQVZFUaa1Q4gMYhKkH-50" value="返回代理对象" style="strokeWidth=2;html=1;shape=mxgraph.flowchart.terminator;whiteSpace=wrap;fontSize=24;" vertex="1" parent="1">
          <mxGeometry x="401.25" y="1920" width="152.5" height="60" as="geometry" />
        </mxCell>
      </root>
    </mxGraphModel>
  </diagram>
</mxfile>
